<?xml version="1.0" encoding="UTF-8"?>
<svg version="1.1" xmlns="http://www.w3.org/2000/svg" width="512" height="512">
<path d="M0 0 C1.45108658 0.00273422 1.45108658 0.00273422 2.93148804 0.00552368 C17.26440977 0.05095174 31.21023917 0.55983928 45.3125 3.3125 C46.65803955 3.55395752 46.65803955 3.55395752 48.03076172 3.80029297 C107.84088904 14.62287989 165.35495829 48.68064457 202.3125 97.3125 C202.72918945 97.85277832 203.14587891 98.39305664 203.57519531 98.94970703 C211.2584873 108.9447116 218.00092968 119.40459036 224.3125 130.3125 C224.70679199 130.98974121 225.10108398 131.66698242 225.50732422 132.36474609 C238.68961173 155.2833756 247.29510918 180.85822563 252.625 206.6875 C252.77243652 207.39817627 252.91987305 208.10885254 253.07177734 208.84106445 C256.05713787 224.48358366 256.6873098 240.11919606 256.625 256 C256.62226578 257.45108658 256.62226578 257.45108658 256.61947632 258.93148804 C256.57404826 273.26440977 256.06516072 287.21023917 253.3125 301.3125 C253.15152832 302.20952637 252.99055664 303.10655273 252.82470703 304.03076172 C244.93512494 347.63188156 225.2475709 388.77776903 196.3125 422.3125 C195.66667969 423.06917969 195.02085937 423.82585937 194.35546875 424.60546875 C183.71309817 436.7536432 172.22416267 448.57881337 159.3125 458.3125 C158.77512207 458.72628906 158.23774414 459.14007813 157.68408203 459.56640625 C147.6861221 467.25326589 137.22438153 473.99863145 126.3125 480.3125 C125.63525879 480.70679199 124.95801758 481.10108398 124.26025391 481.50732422 C86.85070239 503.02446876 44.04569533 512.78824631 1.1875 512.625 C0.19393494 512.62317719 -0.79963013 512.62135437 -1.82330322 512.61947632 C-16.317192 512.57469978 -30.42886097 512.11360213 -44.6875 509.3125 C-45.58307617 509.15152832 -46.47865234 508.99055664 -47.40136719 508.82470703 C-107.21340465 498.00365541 -164.72893264 463.94570506 -201.6875 415.3125 C-202.10418945 414.77222168 -202.52087891 414.23194336 -202.95019531 413.67529297 C-210.6334873 403.6802884 -217.37592968 393.22040964 -223.6875 382.3125 C-224.08179199 381.63525879 -224.47608398 380.95801758 -224.88232422 380.26025391 C-238.06461173 357.3416244 -246.67010918 331.76677437 -252 305.9375 C-252.14743652 305.22682373 -252.29487305 304.51614746 -252.44677734 303.78393555 C-255.43213787 288.14141634 -256.0623098 272.50580394 -256 256.625 C-255.99817719 255.65760895 -255.99635437 254.6902179 -255.99447632 253.69351196 C-255.94904826 239.36059023 -255.44016072 225.41476083 -252.6875 211.3125 C-252.44604248 209.96696045 -252.44604248 209.96696045 -252.19970703 208.59423828 C-241.37712011 148.78411096 -207.31935543 91.27004171 -158.6875 54.3125 C-158.14722168 53.89581055 -157.60694336 53.47912109 -157.05029297 53.04980469 C-147.0552884 45.3665127 -136.59540964 38.62407032 -125.6875 32.3125 C-125.01025879 31.91820801 -124.33301758 31.52391602 -123.63525391 31.11767578 C-100.7166244 17.93538827 -75.14177437 9.32989082 -49.3125 4 C-48.60182373 3.85256348 -47.89114746 3.70512695 -47.15893555 3.55322266 C-31.51641634 0.56786213 -15.88080394 -0.0623098 0 0 Z " fill="#2896FE" transform="translate(255.6875,-0.3125)"/>
<path d="M0 0 C4.52634704 3.87972604 8.84613538 7.7030098 13.02709961 11.91357422 C13.58407532 12.4704039 14.14105103 13.02723358 14.71490479 13.60093689 C16.52976899 15.41649 18.34107911 17.23554394 20.15234375 19.0546875 C21.42007374 20.32428531 22.68802673 21.59366048 23.95619202 22.86282349 C27.27424776 26.18467574 30.58928789 29.50952133 33.90368652 32.83502197 C37.29398355 36.23559509 40.68715506 39.63329737 44.08007812 43.03125 C50.72285162 49.68471019 57.36243946 56.34133959 64 63 C61.8747197 69.58472359 61.8747197 69.58472359 59.64453125 72.55078125 C58.96414795 73.46718384 58.96414795 73.46718384 58.27001953 74.40209961 C57.78903809 75.03253174 57.30805664 75.66296387 56.8125 76.3125 C56.06395752 77.31132202 56.06395752 77.31132202 55.30029297 78.33032227 C53.87510987 80.22664218 52.43940735 82.11446676 51 84 C50.39800781 84.79664063 49.79601562 85.59328125 49.17578125 86.4140625 C47.47657343 88.63116489 45.74292117 90.81705139 44 93 C43.55994629 93.5573584 43.11989258 94.1147168 42.66650391 94.68896484 C41.09732629 96.67343742 39.51821037 98.6497045 37.9375 100.625 C37.46199707 101.22755615 36.98649414 101.8301123 36.49658203 102.45092773 C35.9911084 103.07813721 35.48563477 103.70534668 34.96484375 104.3515625 C34.42649399 105.02603424 33.88814423 105.70050598 33.33348083 106.39541626 C31.48139633 108.46267523 29.70194446 110.15563305 27.60606384 111.94541931 C21.10314175 117.73822253 16.3739165 122.81354864 15.44597721 131.73406315 C15.22105316 136.6549114 15.28785761 141.54222602 15.4140625 146.46484375 C15.4177448 148.59574708 15.4152259 150.72666923 15.40682983 152.8575592 C15.40131931 158.4174264 15.4790023 163.97300687 15.57513428 169.53192139 C15.65847359 175.22357805 15.66161464 180.91524741 15.671875 186.60742188 C15.70357612 197.73971417 15.82333092 208.86912924 16 220 C17.34408936 219.82609741 17.34408936 219.82609741 18.71533203 219.64868164 C22.11077705 219.21130006 25.50664323 218.77750095 28.90283203 218.34594727 C30.35938947 218.16015698 31.81577722 217.97303045 33.27197266 217.78442383 C46.5575672 216.0652734 59.57202362 215 73 215 C73 160.55 73 106.1 73 50 C77.10338418 53.51718644 80.96284248 56.83810314 84.74194336 60.62841797 C85.60230698 61.48885712 86.46267059 62.34929626 87.34910583 63.23580933 C88.25354935 64.14541412 89.15799286 65.05501892 90.08984375 65.9921875 C91.04368954 66.94790248 91.99775941 67.90339388 92.95204163 68.8586731 C95.44153194 71.35194916 97.92800224 73.84821525 100.41381836 76.34515381 C102.95957994 78.90121509 105.50823777 81.45438505 108.05664062 84.0078125 C113.04057069 89.00241019 118.02131048 94.00017799 123 99 C122.05748796 100.10828168 121.1137187 101.21549425 120.16943359 102.32226562 C119.6440097 102.93896118 119.11858582 103.55565674 118.57723999 104.19104004 C111.8729064 111.88033977 104.21802506 119.53726952 95.9128418 125.49797153 C91.69797218 128.67927466 91.69797218 128.67927466 89.26098633 133.23058891 C88.97794023 135.84166806 88.94398137 138.34850824 89 140.97436523 C88.98907822 141.95074448 88.97815643 142.92712372 88.96690369 143.93309021 C88.94030858 147.14266454 88.96980463 150.34909397 89 153.55859375 C88.99247877 155.79062818 88.98144246 158.02265329 88.96704102 160.25465393 C88.93863885 166.11576554 88.95787762 171.97578334 88.98712158 177.83685303 C89.00853202 183.82294827 88.98477321 189.80884677 88.96484375 195.79492188 C88.93241642 207.53019455 88.95032986 219.26480768 89 231 C87.68834869 231.08302368 86.37669739 231.16604736 85.02529907 231.25158691 C80.08503111 231.56496805 75.14498169 231.88169011 70.20498657 232.19934082 C68.08073509 232.33548376 65.95642796 232.47076146 63.83206177 232.60510254 C42.14974372 233.97737689 20.6385652 235.9214403 -0.828125 239.3515625 C-4.87551139 239.99709981 -8.9307262 240.5120554 -13 241 C-12.36537842 241.01458252 -11.73075684 241.02916504 -11.0769043 241.04418945 C14.81639428 241.69410551 40.54642626 243.83991062 66.25 247 C67.51481201 247.15380127 68.77962402 247.30760254 70.08276367 247.46606445 C77.48664737 248.41382046 84.7595075 249.69358585 92.06787109 251.20605469 C96.28581216 252.07158094 100.52051597 252.82839259 104.76171875 253.5703125 C105.86179764 253.76291656 105.86179764 253.76291656 106.98410034 253.95941162 C109.21833499 254.34928794 111.45286906 254.73740201 113.6875 255.125 C115.9709421 255.52155335 118.25427732 255.91867937 120.53730774 256.31759644 C121.94053513 256.56275987 123.34399589 256.80659276 124.74772644 257.04885864 C127.87500354 257.5949841 130.91652126 258.22913031 134 259 C134 202.9 134 146.8 134 89 C141.87878418 95.75324359 141.87878418 95.75324359 145.49304199 99.29876709 C146.31186859 100.10032227 147.13069519 100.90187744 147.97433472 101.72772217 C148.84840973 102.58811096 149.72248474 103.44849976 150.62304688 104.33496094 C151.56201813 105.25611694 152.50098938 106.17727295 153.46841431 107.12634277 C162.06512283 115.56510047 170.62583109 124.04060043 179.17726898 132.5252037 C185.4899012 138.7874835 191.81983729 145.03116624 198.17300749 151.252321 C202.65168052 155.64104201 207.10913096 160.05062952 211.55161715 164.47597337 C214.20113443 167.11403657 216.8592126 169.74187184 219.5408783 172.34728241 C222.52857333 175.25089151 225.47126881 178.19640612 228.41210938 181.14746094 C229.30237823 181.99975281 230.19264709 182.85204468 231.1098938 183.73016357 C236.82973443 189.56900629 236.82973443 189.56900629 237.32416344 193.72442532 C237.0933738 196.26059846 236.67022054 198.54698147 236 201 C235.77779785 202.03133057 235.5555957 203.06266113 235.32666016 204.12524414 C234.44281303 207.11021451 233.55334435 210.09098434 232.625 213.0625 C232.2741333 214.18865723 231.9232666 215.31481445 231.56176758 216.47509766 C216.30618885 263.87600641 185.90236779 308.79612438 146 339 C145.46117187 339.41523926 144.92234375 339.83047852 144.3671875 340.25830078 C134.37070531 347.94337664 123.90989551 354.68728061 113 361 C112.32275879 361.39429199 111.64551758 361.78858398 110.94775391 362.19482422 C74.28122541 383.2845984 31.95562482 393.44027465 -10.12402344 393.26074219 C-13.15579649 393.24988976 -16.18699328 393.26077271 -19.21875 393.2734375 C-21.16927213 393.27211784 -23.1197939 393.26955946 -25.0703125 393.265625 C-26.41260422 393.27169769 -26.41260422 393.27169769 -27.78201294 393.27789307 C-28.6275473 393.27158875 -29.47308167 393.26528442 -30.34423828 393.25878906 C-31.07683868 393.25719788 -31.80943909 393.25560669 -32.5642395 393.25396729 C-38.90339825 392.59300783 -42.84126036 390.78391968 -47.32151794 386.27975464 C-47.8093581 385.79618661 -48.29719825 385.31261858 -48.79982144 384.81439698 C-50.42088527 383.20152645 -52.02350033 381.57152287 -53.62670898 379.94091797 C-54.78921375 378.77700195 -55.9528224 377.61418758 -57.1174469 376.45239258 C-60.26872069 373.3025513 -63.40435757 370.13755059 -66.53739047 366.96957922 C-69.81690624 363.65877283 -73.11062012 360.36215318 -76.40284729 357.06399536 C-82.63173676 350.81957549 -88.84777269 344.56252163 -95.0592795 338.3008157 C-102.13284609 331.17133092 -109.22064303 324.05606592 -116.30966461 316.94195342 C-130.8889873 302.31039072 -145.45036775 287.6610833 -160 273 C-129.24187554 241.75077944 -80.91531587 224.02338212 -39.03564453 214.31469727 C-36.86660028 213.81054766 -34.70089404 213.29353888 -32.53515625 212.77539062 C-21.77338476 210.233668 -11.10708482 208 0 208 C0 139.36 0 70.72 0 0 Z " fill="#1E73BE" transform="translate(269,119)"/>
<path d="M0 0 C0.33 0 0.66 0 1 0 C1 67.98 1 135.96 1 206 C-10.88 207.98 -10.88 207.98 -23 210 C-29.2787614 211.36308584 -35.51969525 212.75990732 -41.75 214.3125 C-42.54150452 214.50764191 -43.33300903 214.70278381 -44.14849854 214.90383911 C-56.36567128 217.92680739 -68.33276566 221.22956954 -80 226 C-80.88155762 226.35642578 -81.76311523 226.71285156 -82.67138672 227.08007812 C-108.53714042 237.64993841 -134.82581575 250.46812542 -156 269 C-156.66 268.67 -157.32 268.34 -158 268 C-157.41734375 267.319375 -156.8346875 266.63875 -156.234375 265.9375 C-149.72576076 258.24178001 -143.61455881 250.30804585 -137.62695312 242.20214844 C-135.93764092 239.91559441 -134.24244565 237.63347854 -132.546875 235.3515625 C-124.87599989 225.00743937 -117.374177 214.55719683 -110 204 C-109.37834961 203.1126416 -108.75669922 202.2252832 -108.11621094 201.31103516 C-99.24651789 188.64778263 -90.48203353 175.92657122 -82 163 C-81.54850586 162.31309082 -81.09701172 161.62618164 -80.63183594 160.91845703 C-68.43665958 142.32760766 -56.83767413 123.41481689 -46 104 C-45.26765137 102.69192383 -45.26765137 102.69192383 -44.52050781 101.35742188 C-32.41463035 79.66739224 -21.26354471 57.65763584 -12.03857422 34.58105469 C-11.1110362 32.27594609 -10.15917123 29.98374718 -9.19140625 27.6953125 C-6.06175396 20.23055416 -3.70422741 12.79301953 -1.76171875 4.94921875 C-1 2 -1 2 0 0 Z " fill="#FDFEFE" transform="translate(268,121)"/>
<path d="M0 0 C0 56.1 0 112.2 0 170 C-9.7855317 168.77680854 -19.25798034 167.51010897 -28.875 165.5625 C-31.15469122 165.11587526 -33.43464009 164.67056363 -35.71484375 164.2265625 C-37.34462158 163.90800293 -37.34462158 163.90800293 -39.00732422 163.58300781 C-75.51886009 156.47013886 -112.87491305 153.94591107 -150 153 C-146.89054896 150.92703264 -145.55769737 150.62933993 -141.94921875 150.21875 C-140.94777832 150.10007568 -139.94633789 149.98140137 -138.91455078 149.85913086 C-137.84962402 149.74061768 -136.78469727 149.62210449 -135.6875 149.5 C-133.49077322 149.24183836 -131.29415753 148.98272958 -129.09765625 148.72265625 C-127.51041748 148.53727295 -127.51041748 148.53727295 -125.89111328 148.34814453 C-122.45835793 147.93477609 -119.04425555 147.45018649 -115.625 146.9375 C-102.59781579 145.0542392 -89.56437452 143.82321667 -76.4375 142.875 C-75.26759521 142.78734375 -74.09769043 142.6996875 -72.89233398 142.609375 C-66.25928874 142.15316056 -59.68592478 141.94975094 -53.03930664 141.97705078 C-52.26174263 141.97870743 -51.48417862 141.98036407 -50.68305206 141.98207092 C-48.78869678 141.98634804 -46.89434693 141.99293157 -45 142 C-45.03330917 140.77828094 -45.06661835 139.55656189 -45.10093689 138.29782104 C-45.4061416 126.73605695 -45.63039286 115.17511831 -45.77718258 103.61022758 C-45.85519402 97.66535361 -45.960828 91.7237521 -46.1315918 85.78076172 C-46.29561958 80.03567978 -46.38446926 74.29372617 -46.42315865 68.54648209 C-46.45069465 66.36375819 -46.50447347 64.18118954 -46.58595085 61.99981308 C-47.22910218 44.05294565 -47.22910218 44.05294565 -41.71037292 37.57710266 C-38.61504576 34.47255505 -35.29190607 31.78122658 -31.72662544 29.2365303 C-29.61273079 27.72265548 -27.67887485 26.04551975 -25.74609375 24.30859375 C-25.15038574 23.79538574 -24.55467773 23.28217773 -23.94091797 22.75341797 C-19.46832313 18.71289266 -15.29259901 14.35383084 -11.0625 10.0625 C-9.18121858 8.15469053 -7.29670807 6.25027523 -5.41015625 4.34765625 C-4.58652588 3.51242432 -3.76289551 2.67719238 -2.91430664 1.81665039 C-1 0 -1 0 0 0 Z " fill="#FDFEFE" transform="translate(403,208)"/>
<path d="M0 0 C0.33 0 0.66 0 1 0 C1 54.45 1 108.9 1 165 C-9.89 165.99 -20.78 166.98 -32 168 C-38.88312247 168.80019086 -38.88312247 168.80019086 -45.7578125 169.66796875 C-49.19369881 170.01983663 -52.54841428 170.02172255 -56 170 C-56.20887831 157.63891932 -56.36862099 145.27826099 -56.46630955 132.91577244 C-56.51320514 127.17473919 -56.57677236 121.43491659 -56.67895508 115.69458008 C-56.77701845 110.15072238 -56.830615 104.60802615 -56.85389519 99.06336784 C-56.87047661 96.95218565 -56.90285841 94.84106438 -56.95157051 92.7303791 C-57.31815661 76.18244041 -57.31815661 76.18244041 -54.05075073 70.77267456 C-51.81671979 68.52479567 -49.60542545 66.78776055 -47 65 C-45.88133831 63.84571954 -44.79079179 62.66245706 -43.75 61.4375 C-43.19054687 60.78394531 -42.63109375 60.13039062 -42.0546875 59.45703125 C-41.03761719 58.24080078 -41.03761719 58.24080078 -40 57 C-39.55172852 56.46552246 -39.10345703 55.93104492 -38.64160156 55.38037109 C-24.11499739 37.99075658 -11.16467239 19.72172289 0 0 Z " fill="#FCFDFE" transform="translate(341,169)"/>
<path d="M0 0 C0.33 0 0.66 0 1 0 C1 67.98 1 135.96 1 206 C0.67 206 0.34 206 0 206 C-0.33 140.99 -0.66 75.98 -1 9 C-1.99 9.495 -1.99 9.495 -3 10 C-2.01 6.7 -1.02 3.4 0 0 Z " fill="#EFF5FA" transform="translate(268,121)"/>
<path d="M0 0 C-0.33 0.66 -0.66 1.32 -1 2 C-5.62 2 -10.24 2 -15 2 C-10.59410693 -0.93726205 -5.06616281 -1.89981105 0 0 Z " fill="#C4DAEE" transform="translate(268,359)"/>
</svg>
